<mxfile host="Electron" modified="2023-11-22T08:08:24.046Z" agent="Mozilla/5.0 (Macintosh; Intel Mac OS X 10_15_7) AppleWebKit/537.36 (KHTML, like Gecko) draw.io/22.0.3 Chrome/114.0.5735.289 Electron/25.8.4 Safari/537.36" etag="XH4_J-r8VXqWhfhohW1i" version="22.0.3" type="device">
  <diagram name="Seite-1" id="2_susSA4ob_1ac-8ONg7">
    <mxGraphModel dx="1383" dy="809" grid="1" gridSize="10" guides="1" tooltips="1" connect="1" arrows="1" fold="1" page="1" pageScale="1" pageWidth="850" pageHeight="1100" math="0" shadow="0">
      <root>
        <mxCell id="0" />
        <mxCell id="1" parent="0" />
        <mxCell id="uuhPxIiSn8aQgS91nO3l-1" value="" style="ellipse;html=1;shape=startState;fillColor=#000000;strokeColor=#ff0000;" vertex="1" parent="1">
          <mxGeometry x="190" y="40" width="30" height="30" as="geometry" />
        </mxCell>
        <mxCell id="uuhPxIiSn8aQgS91nO3l-2" value="" style="edgeStyle=orthogonalEdgeStyle;html=1;verticalAlign=bottom;endArrow=open;endSize=8;strokeColor=#ff0000;rounded=0;entryX=0.5;entryY=0;entryDx=0;entryDy=0;" edge="1" source="uuhPxIiSn8aQgS91nO3l-1" parent="1" target="uuhPxIiSn8aQgS91nO3l-3">
          <mxGeometry relative="1" as="geometry">
            <mxPoint x="205" y="130" as="targetPoint" />
          </mxGeometry>
        </mxCell>
        <mxCell id="uuhPxIiSn8aQgS91nO3l-3" value="Create empty lists for mab metrics" style="rounded=1;whiteSpace=wrap;html=1;arcSize=40;fontColor=#000000;fillColor=#ffffc0;strokeColor=#ff0000;" vertex="1" parent="1">
          <mxGeometry x="145" y="130" width="120" height="40" as="geometry" />
        </mxCell>
        <mxCell id="uuhPxIiSn8aQgS91nO3l-4" value="" style="edgeStyle=orthogonalEdgeStyle;html=1;verticalAlign=bottom;endArrow=open;endSize=8;strokeColor=#ff0000;rounded=0;entryX=0.5;entryY=0;entryDx=0;entryDy=0;" edge="1" source="uuhPxIiSn8aQgS91nO3l-3" parent="1" target="uuhPxIiSn8aQgS91nO3l-5">
          <mxGeometry relative="1" as="geometry">
            <mxPoint x="205" y="260" as="targetPoint" />
          </mxGeometry>
        </mxCell>
        <mxCell id="uuhPxIiSn8aQgS91nO3l-5" value="Initialize and reset mab environment and algorithm" style="rounded=1;whiteSpace=wrap;html=1;arcSize=40;fontColor=#000000;fillColor=#ffffc0;strokeColor=#ff0000;" vertex="1" parent="1">
          <mxGeometry x="137.5" y="210" width="135" height="60" as="geometry" />
        </mxCell>
        <mxCell id="uuhPxIiSn8aQgS91nO3l-6" value="" style="edgeStyle=orthogonalEdgeStyle;html=1;verticalAlign=bottom;endArrow=open;endSize=8;strokeColor=#ff0000;rounded=0;entryX=0.5;entryY=0;entryDx=0;entryDy=0;" edge="1" source="uuhPxIiSn8aQgS91nO3l-5" parent="1" target="uuhPxIiSn8aQgS91nO3l-7">
          <mxGeometry relative="1" as="geometry">
            <mxPoint x="205" y="360" as="targetPoint" />
          </mxGeometry>
        </mxCell>
        <mxCell id="uuhPxIiSn8aQgS91nO3l-7" value="set done to False" style="rounded=1;whiteSpace=wrap;html=1;arcSize=40;fontColor=#000000;fillColor=#ffffc0;strokeColor=#ff0000;" vertex="1" parent="1">
          <mxGeometry x="145" y="360" width="120" height="40" as="geometry" />
        </mxCell>
        <mxCell id="uuhPxIiSn8aQgS91nO3l-8" value="" style="edgeStyle=orthogonalEdgeStyle;html=1;verticalAlign=bottom;endArrow=open;endSize=8;strokeColor=#ff0000;rounded=0;entryX=0.498;entryY=0.002;entryDx=0;entryDy=0;entryPerimeter=0;" edge="1" source="uuhPxIiSn8aQgS91nO3l-7" parent="1" target="uuhPxIiSn8aQgS91nO3l-9">
          <mxGeometry relative="1" as="geometry">
            <mxPoint x="205" y="470" as="targetPoint" />
          </mxGeometry>
        </mxCell>
        <mxCell id="uuhPxIiSn8aQgS91nO3l-30" style="edgeStyle=orthogonalEdgeStyle;rounded=0;orthogonalLoop=1;jettySize=auto;html=1;endArrow=open;verticalAlign=bottom;strokeColor=#ff0000;endSize=8;" edge="1" parent="1" source="uuhPxIiSn8aQgS91nO3l-9" target="uuhPxIiSn8aQgS91nO3l-29">
          <mxGeometry relative="1" as="geometry" />
        </mxCell>
        <mxCell id="uuhPxIiSn8aQgS91nO3l-9" value="while not done" style="shape=umlFrame;whiteSpace=wrap;html=1;pointerEvents=0;width=95;height=20;" vertex="1" parent="1">
          <mxGeometry x="55" y="460" width="425" height="290" as="geometry" />
        </mxCell>
        <mxCell id="uuhPxIiSn8aQgS91nO3l-10" value="" style="ellipse;html=1;shape=startState;fillColor=#000000;strokeColor=#ff0000;" vertex="1" parent="1">
          <mxGeometry x="170" y="460" width="30" height="30" as="geometry" />
        </mxCell>
        <mxCell id="uuhPxIiSn8aQgS91nO3l-11" value="" style="edgeStyle=orthogonalEdgeStyle;html=1;verticalAlign=bottom;endArrow=open;endSize=8;strokeColor=#ff0000;rounded=0;entryX=0.5;entryY=0;entryDx=0;entryDy=0;" edge="1" source="uuhPxIiSn8aQgS91nO3l-10" parent="1" target="uuhPxIiSn8aQgS91nO3l-12">
          <mxGeometry relative="1" as="geometry">
            <mxPoint x="180" y="550" as="targetPoint" />
          </mxGeometry>
        </mxCell>
        <mxCell id="uuhPxIiSn8aQgS91nO3l-16" style="edgeStyle=orthogonalEdgeStyle;rounded=0;orthogonalLoop=1;jettySize=auto;html=1;endArrow=open;verticalAlign=bottom;strokeColor=#ff0000;endSize=8;" edge="1" parent="1" source="uuhPxIiSn8aQgS91nO3l-12" target="uuhPxIiSn8aQgS91nO3l-14">
          <mxGeometry relative="1" as="geometry" />
        </mxCell>
        <mxCell id="uuhPxIiSn8aQgS91nO3l-12" value="get action from learning rule" style="rounded=1;whiteSpace=wrap;html=1;arcSize=40;fontColor=#000000;fillColor=#ffffc0;strokeColor=#ff0000;" vertex="1" parent="1">
          <mxGeometry x="125" y="510" width="120" height="40" as="geometry" />
        </mxCell>
        <mxCell id="uuhPxIiSn8aQgS91nO3l-19" style="edgeStyle=orthogonalEdgeStyle;rounded=0;orthogonalLoop=1;jettySize=auto;html=1;entryX=0;entryY=0.5;entryDx=0;entryDy=0;endArrow=open;verticalAlign=bottom;strokeColor=#ff0000;endSize=8;" edge="1" parent="1" source="uuhPxIiSn8aQgS91nO3l-14" target="uuhPxIiSn8aQgS91nO3l-17">
          <mxGeometry relative="1" as="geometry" />
        </mxCell>
        <mxCell id="uuhPxIiSn8aQgS91nO3l-14" value="run action on environment and receive reward, done and info" style="rounded=1;whiteSpace=wrap;html=1;arcSize=40;fontColor=#000000;fillColor=#ffffc0;strokeColor=#ff0000;" vertex="1" parent="1">
          <mxGeometry x="110" y="575" width="150" height="60" as="geometry" />
        </mxCell>
        <mxCell id="uuhPxIiSn8aQgS91nO3l-17" value="Update Metric for Mab" style="rounded=1;whiteSpace=wrap;html=1;arcSize=40;fontColor=#000000;fillColor=#ffffc0;strokeColor=#ff0000;" vertex="1" parent="1">
          <mxGeometry x="320" y="500" width="120" height="40" as="geometry" />
        </mxCell>
        <mxCell id="uuhPxIiSn8aQgS91nO3l-18" value="" style="edgeStyle=orthogonalEdgeStyle;html=1;verticalAlign=bottom;endArrow=open;endSize=8;strokeColor=#ff0000;rounded=0;entryX=0.5;entryY=0;entryDx=0;entryDy=0;" edge="1" source="uuhPxIiSn8aQgS91nO3l-17" parent="1" target="uuhPxIiSn8aQgS91nO3l-20">
          <mxGeometry relative="1" as="geometry">
            <mxPoint x="380" y="600" as="targetPoint" />
          </mxGeometry>
        </mxCell>
        <mxCell id="uuhPxIiSn8aQgS91nO3l-25" style="edgeStyle=orthogonalEdgeStyle;rounded=0;orthogonalLoop=1;jettySize=auto;html=1;entryX=0.5;entryY=0;entryDx=0;entryDy=0;endArrow=open;verticalAlign=bottom;strokeColor=#ff0000;endSize=8;" edge="1" parent="1" source="uuhPxIiSn8aQgS91nO3l-20" target="uuhPxIiSn8aQgS91nO3l-22">
          <mxGeometry relative="1" as="geometry" />
        </mxCell>
        <mxCell id="uuhPxIiSn8aQgS91nO3l-20" value="Update algorithm information" style="rounded=1;whiteSpace=wrap;html=1;arcSize=40;fontColor=#000000;fillColor=#ffffc0;strokeColor=#ff0000;" vertex="1" parent="1">
          <mxGeometry x="320" y="570" width="120" height="40" as="geometry" />
        </mxCell>
        <mxCell id="uuhPxIiSn8aQgS91nO3l-27" style="edgeStyle=orthogonalEdgeStyle;rounded=0;orthogonalLoop=1;jettySize=auto;html=1;entryX=0;entryY=0.5;entryDx=0;entryDy=0;endArrow=open;verticalAlign=bottom;strokeColor=#ff0000;endSize=8;" edge="1" parent="1" source="uuhPxIiSn8aQgS91nO3l-22" target="uuhPxIiSn8aQgS91nO3l-12">
          <mxGeometry relative="1" as="geometry">
            <Array as="points">
              <mxPoint x="105" y="670" />
              <mxPoint x="105" y="530" />
            </Array>
          </mxGeometry>
        </mxCell>
        <mxCell id="uuhPxIiSn8aQgS91nO3l-22" value="done" style="rhombus;whiteSpace=wrap;html=1;fontColor=#000000;fillColor=#ffffc0;strokeColor=#ff0000;" vertex="1" parent="1">
          <mxGeometry x="210" y="650" width="80" height="40" as="geometry" />
        </mxCell>
        <mxCell id="uuhPxIiSn8aQgS91nO3l-24" value="yes" style="edgeStyle=orthogonalEdgeStyle;html=1;align=left;verticalAlign=top;endArrow=open;endSize=8;strokeColor=#ff0000;rounded=0;entryX=0.5;entryY=0;entryDx=0;entryDy=0;" edge="1" source="uuhPxIiSn8aQgS91nO3l-22" parent="1" target="uuhPxIiSn8aQgS91nO3l-26">
          <mxGeometry x="-1" relative="1" as="geometry">
            <mxPoint x="370" y="735" as="targetPoint" />
          </mxGeometry>
        </mxCell>
        <mxCell id="uuhPxIiSn8aQgS91nO3l-26" value="" style="ellipse;html=1;shape=endState;fillColor=#000000;strokeColor=#ff0000;" vertex="1" parent="1">
          <mxGeometry x="235" y="710" width="30" height="30" as="geometry" />
        </mxCell>
        <mxCell id="uuhPxIiSn8aQgS91nO3l-28" value="&lt;font style=&quot;font-size: 11px;&quot;&gt;no&lt;/font&gt;" style="text;html=1;strokeColor=none;fillColor=none;align=center;verticalAlign=middle;whiteSpace=wrap;rounded=0;" vertex="1" parent="1">
          <mxGeometry x="170" y="640" width="60" height="30" as="geometry" />
        </mxCell>
        <mxCell id="uuhPxIiSn8aQgS91nO3l-29" value="" style="ellipse;html=1;shape=endState;fillColor=#000000;strokeColor=#ff0000;" vertex="1" parent="1">
          <mxGeometry x="220" y="840" width="30" height="30" as="geometry" />
        </mxCell>
      </root>
    </mxGraphModel>
  </diagram>
</mxfile>
